<?xml version="1.0" ?><svg viewBox="0 0 80 80" xmlns="http://www.w3.org/2000/svg"><title/><g data-name="레이어 2" id="레이어_2"><g data-name="레이어 1" id="레이어_1-2"><path d="M40,0A40,40,0,1,0,80,40,40,40,0,0,0,40,0Zm1.84,21.63A9.38,9.38,0,0,1,48,18.45a.34.34,0,0,1,.35.3,9.27,9.27,0,0,1-2.18,6.71,7.94,7.94,0,0,1-5.85,3l-.44,0a.34.34,0,0,1-.31-.29A8.79,8.79,0,0,1,41.84,21.63Zm14.93,27a22.66,22.66,0,0,1-2.83,5.8c-1.62,2.37-3.46,5.06-6.46,5.11a7.23,7.23,0,0,1-3.27-.78,7.79,7.79,0,0,0-3.41-.82,8.29,8.29,0,0,0-3.58.85,8,8,0,0,1-3,.81H34c-2.66,0-4.6-2.49-6.52-5.26-3.84-5.55-6.05-14.7-2.58-20.73a10.28,10.28,0,0,1,8.65-5.24h.11a11.52,11.52,0,0,1,4.19,1.06,7.52,7.52,0,0,0,2.38.7,7.71,7.71,0,0,0,2.3-.69,13.33,13.33,0,0,1,4.8-1.2c.23,0,.45,0,.67,0a9.72,9.72,0,0,1,7.65,4.15.34.34,0,0,1-.1.47l0,0a8.84,8.84,0,0,0-4.18,7.39,8.59,8.59,0,0,0,5.2,7.86h0a.34.34,0,0,1,.18.41Z"/></g></g></svg>