<?xml version="1.0" encoding="utf-8"?>
<!-- Generator: Adobe Illustrator 27.5.0, SVG Export Plug-In . SVG Version: 6.00 Build 0)  -->
<svg version="1.1" xmlns="http://www.w3.org/2000/svg" xmlns:xlink="http://www.w3.org/1999/xlink" x="0px" y="0px"
	 viewBox="0 0 750 500" style="enable-background:new 0 0 750 500;" xml:space="preserve">
<g id="BACKGROUND">
	<rect style="fill:#DEEBFF;" width="750" height="500"/>
</g>
<g id="OBJECTS">
	<path style="fill:#FFFFFF;" d="M163.081,228.129h27.704C204.563,125.195,292.513,45.742,399.217,45.742
		c107.786,0,196.503,81.047,208.904,185.494c53.588,12.261,93.919,60.378,93.919,117.539c0,66.358-54.296,120.651-120.649,120.651
		H163.081c-66.353,0-120.649-54.292-120.649-120.651C42.432,282.421,96.728,228.129,163.081,228.129z"/>
	<g>
		<path style="fill:#3C4D77;" d="M470.89,469.093H267.849c-6.918,0-12.526-5.608-12.526-12.526V81.39
			c0-6.918,5.608-12.526,12.526-12.526H470.89c6.918,0,12.527,5.608,12.527,12.526v375.176
			C483.417,463.484,477.809,469.093,470.89,469.093z"/>
		<path style="fill:#383C56;" d="M465.26,429.547h-191.78c-3.767,0-6.82-3.053-6.82-6.82V102.83c0-3.767,3.053-6.82,6.82-6.82
			h191.78c3.767,0,6.82,3.054,6.82,6.82v319.897C472.08,426.494,469.026,429.547,465.26,429.547z"/>
		<g>
			<path style="fill:#FFFFFF;" d="M467.357,106.685v312.18c0,2.43-1.97,4.4-4.4,4.4h-187.18c-2.42,0-4.39-1.97-4.39-4.4v-312.18
				c0-2.43,1.97-4.39,4.39-4.39h187.18c2.36,0,4.28,1.84,4.39,4.17C467.357,106.535,467.357,106.615,467.357,106.685z"/>
			<path style="fill:#5D95E8;" d="M467.347,106.465v106.59h-195.96v-106.37c0-2.43,1.97-4.39,4.39-4.39h187.18
				C465.317,102.295,467.237,104.135,467.347,106.465z"/>
			<path style="fill:#FFFFFF;" d="M467.347,135.035l-18.46-18.67c1.48,3.54,0.78,7.78-2.1,10.67c-3.5,3.49-9,3.77-12.82,0.82
				l11.21,11.2c1.57,1.57,2.37,3.8,2.05,6c-1.45,9.82-9.73,13.93-15.1,8.56l-51.23-51.32h82.06c2.36,0,4.28,1.84,4.39,4.17V135.035z
				"/>
			<g>
				<circle style="fill:#EBAC3B;" cx="369.844" cy="145.335" r="30.813"/>
				<g>
					<path style="fill:#FFFFFF;" d="M377.684,134.87c0,4.331-3.511,7.842-7.841,7.842c-4.331,0-7.842-3.511-7.842-7.842
						c0-4.331,3.511-7.842,7.842-7.842C374.173,127.028,377.684,130.539,377.684,134.87z"/>
					<path style="fill:#FFFFFF;" d="M384.672,159.874h-29.656c0-8.188,6.632-14.836,14.82-14.836
						C378.04,145.039,384.672,151.686,384.672,159.874z"/>
				</g>
			</g>
			<path style="fill:#CBDDFE;" d="M410.116,188.621h-80.544c-1.345,0-2.435-1.09-2.435-2.435v0c0-1.345,1.09-2.435,2.435-2.435
				h80.544c1.345,0,2.435,1.09,2.435,2.435v0C412.551,187.531,411.461,188.621,410.116,188.621z"/>
			<path style="fill:#CBDDFE;" d="M396.613,198.549h-53.537c-1.345,0-2.435-1.09-2.435-2.435l0,0c0-1.345,1.09-2.435,2.435-2.435
				h53.537c1.345,0,2.435,1.09,2.435,2.435l0,0C399.048,197.459,397.958,198.549,396.613,198.549z"/>
			<g>
				<g>
					<path style="fill:#7BA9FA;" d="M297.08,245.471h-14.262c-2.217,0-4.014-1.797-4.014-4.014v-14.262
						c0-2.217,1.797-4.014,4.014-4.014h14.262c2.217,0,4.014,1.797,4.014,4.014v14.262
						C301.094,243.673,299.297,245.471,297.08,245.471z"/>
					<g>
						<path style="fill:#FFFFFF;" d="M286.39,234.325c0,0.867-0.702,1.569-1.569,1.569c-0.866,0-1.569-0.702-1.569-1.569
							c0-0.866,0.702-1.569,1.569-1.569C285.688,232.757,286.39,233.459,286.39,234.325z"/>
						<path style="fill:#FFFFFF;" d="M291.518,234.325c0,0.867-0.702,1.569-1.569,1.569c-0.866,0-1.569-0.702-1.569-1.569
							c0-0.866,0.702-1.569,1.569-1.569C290.815,232.757,291.518,233.459,291.518,234.325z"/>
						<path style="fill:#FFFFFF;" d="M296.645,234.325c0,0.867-0.702,1.569-1.569,1.569c-0.866,0-1.569-0.702-1.569-1.569
							c0-0.866,0.702-1.569,1.569-1.569C295.943,232.757,296.645,233.459,296.645,234.325z"/>
					</g>
					<polygon style="fill:#7BA9FA;" points="292.986,245.668 292.986,250.726 298.074,244.604 292.986,244.604 					"/>
					<path style="fill:#CBDDFE;" d="M457.076,244.066H310.509c-1.579,0-2.859-1.28-2.859-2.859v-13.763
						c0-1.579,1.28-2.859,2.859-2.859h146.567c1.579,0,2.859,1.28,2.859,2.859v13.763
						C459.935,242.786,458.655,244.066,457.076,244.066z"/>
				</g>
				<path style="fill:#7BA9FA;" d="M458.049,259.144H432.6c-1.042,0-1.886-0.844-1.886-1.886v-5.219
					c0-1.042,0.844-1.886,1.886-1.886h25.449c1.041,0,1.886,0.844,1.886,1.886v5.219C459.935,258.3,459.09,259.144,458.049,259.144z
					"/>
				<path style="fill:#7BA9FA;" d="M427.249,254.649c0,2.483-2.013,4.495-4.495,4.495c-2.483,0-4.496-2.013-4.496-4.495
					c0-2.483,2.013-4.496,4.496-4.496C425.236,250.153,427.249,252.166,427.249,254.649z"/>
				<path style="fill:#7BA9FA;" d="M414.652,254.649c0,2.483-2.013,4.495-4.495,4.495c-2.483,0-4.496-2.013-4.496-4.495
					c0-2.483,2.013-4.496,4.496-4.496C412.64,250.153,414.652,252.166,414.652,254.649z"/>
			</g>
			<g>
				<rect x="278.804" y="265.049" style="fill:#CBDDFE;" width="181.131" height="1.967"/>
			</g>
			<g>
				<path style="fill:#4361B7;" d="M451.634,401.602h-164.53c-4.584,0-8.301-3.716-8.301-8.301v-92.996
					c0-4.584,3.716-8.301,8.301-8.301h164.53c4.584,0,8.301,3.716,8.301,8.301v92.996
					C459.935,397.885,456.219,401.602,451.634,401.602z"/>
				<g>
					<g>
						<path style="fill:#5D95E8;" d="M447.486,371.731h-39.682c-2.74,0-4.961-2.221-4.961-4.961v-60.284
							c0-2.74,2.221-4.961,4.961-4.961h39.682c2.74,0,4.96,2.221,4.96,4.961v60.284C452.446,369.51,450.225,371.731,447.486,371.731
							z"/>
						
							<ellipse transform="matrix(0.7071 -0.7071 0.7071 0.7071 -112.778 400.9865)" style="fill:#EBAC3B;" cx="427.645" cy="336.628" rx="15.37" ry="15.37"/>
						<g>
							<path style="fill:#FFFFFF;" d="M433.993,333.454c0,3.506-6.348,12.696-6.348,12.696s-6.348-9.19-6.348-12.696
								c0-3.506,2.842-6.348,6.348-6.348C431.151,327.106,433.993,329.948,433.993,333.454z"/>
							<path style="fill:#EBAC3B;" d="M431.499,333.43c0,2.129-1.726,3.854-3.854,3.854c-2.129,0-3.854-1.726-3.854-3.854
								c0-2.129,1.726-3.854,3.854-3.854C429.773,329.576,431.499,331.302,431.499,333.43z"/>
						</g>
					</g>
					<g>
						<path style="fill:#5D95E8;" d="M389.21,371.731h-39.682c-2.74,0-4.961-2.221-4.961-4.961v-60.284
							c0-2.74,2.221-4.961,4.961-4.961h39.682c2.74,0,4.961,2.221,4.961,4.961v60.284C394.171,369.51,391.95,371.731,389.21,371.731
							z"/>
						<g>
							
								<ellipse transform="matrix(0.7071 -0.7071 0.7071 0.7071 -129.8464 359.7798)" style="fill:#EBAC3B;" cx="369.37" cy="336.628" rx="15.37" ry="15.37"/>
							<path style="fill:#FFFFFF;" d="M365.812,340.643v-8.029c0-0.564,0.592-0.931,1.097-0.682l8.029,3.966
								c0.562,0.277,0.566,1.077,0.007,1.36l-8.03,4.063C366.41,341.577,365.812,341.21,365.812,340.643z"/>
						</g>
					</g>
					<g>
						<path style="fill:#5D95E8;" d="M319.659,356.191l-38.499,9.618c-2.658,0.664-5.351-0.952-6.015-3.61l-14.612-58.486
							c-0.664-2.658,0.952-5.351,3.61-6.015l38.499-9.618c2.658-0.664,5.351,0.952,6.015,3.61l14.612,58.486
							C323.934,352.834,322.317,355.527,319.659,356.191z"/>
						<g>
							<path style="fill:#EBAC3B;" d="M306.729,323.458c2.236,8.189-2.59,16.64-10.779,18.876
								c-8.189,2.236-16.64-2.59-18.876-10.779c-2.236-8.189,2.59-16.64,10.779-18.876
								C296.042,310.443,304.493,315.269,306.729,323.458z"/>
							<g>
								<path style="fill:#FFFFFF;" d="M292.198,334.653l-1.873,0.511l-1.939-7.1c-0.141-0.517,0.164-1.051,0.681-1.192l0,0
									c0.517-0.141,1.051,0.163,1.192,0.681L292.198,334.653z"/>
								<path style="fill:#FFFFFF;" d="M297.15,333.3l-1.872,0.511l-4.268-15.631c-0.141-0.517,0.163-1.051,0.681-1.192l0,0
									c0.517-0.141,1.051,0.164,1.192,0.681L297.15,333.3z"/>
								<path style="fill:#FFFFFF;" d="M302.103,331.948l-1.873,0.511l-3.438-12.59c-0.141-0.517,0.164-1.051,0.681-1.192l0,0
									c0.517-0.141,1.051,0.164,1.192,0.681L302.103,331.948z"/>
								<path style="fill:#FFFFFF;" d="M287.222,336.005l-1.873,0.511l-3.438-12.591c-0.141-0.517,0.163-1.051,0.681-1.192l0,0
									c0.517-0.141,1.051,0.164,1.192,0.681L287.222,336.005z"/>
							</g>
						</g>
					</g>
				</g>
				<g>
					<path style="fill:#FFFFFF;" d="M334.749,381.916h-47.266c-0.639,0-1.159-0.513-1.168-1.151l0,0
						c-0.01-0.652,0.516-1.186,1.168-1.186h47.266c0.639,0,1.159,0.513,1.168,1.151l0,0
						C335.927,381.382,335.401,381.916,334.749,381.916z"/>
					<path style="fill:#FFFFFF;" d="M393.024,381.916h-47.266c-0.639,0-1.159-0.513-1.168-1.151l0,0
						c-0.01-0.652,0.516-1.186,1.168-1.186h47.266c0.639,0,1.159,0.513,1.168,1.151l0,0
						C394.202,381.382,393.676,381.916,393.024,381.916z"/>
					<path style="fill:#FFFFFF;" d="M451.301,382.025h-47.266c-0.639,0-1.159-0.513-1.168-1.151l0,0
						c-0.01-0.652,0.516-1.185,1.168-1.185h47.266c0.639,0,1.159,0.513,1.168,1.151l0,0
						C452.479,381.492,451.953,382.025,451.301,382.025z"/>
				</g>
			</g>
			<path style="fill:#CBDDFE;" d="M405.404,280.933h-72.07c-1.926,0-3.488-1.562-3.488-3.488l0,0c0-1.926,1.562-3.488,3.488-3.488
				h72.07c1.926,0,3.488,1.562,3.488,3.488l0,0C408.892,279.372,407.331,280.933,405.404,280.933z"/>
			<g>
				<path style="fill:#EBAC3B;" d="M298.459,390.514c-0.088,0.093-0.174,0.19-0.266,0.281c-0.345,0.342-0.692,0.683-1.039,1.024
					c-0.075,0.074-0.153,0.146-0.224,0.223c-0.019,0.02-0.033,0.059-0.028,0.086c0.107,0.613,0.217,1.225,0.326,1.837
					c0.017,0.095,0.033,0.191,0.052,0.303c-0.178-0.092-0.34-0.175-0.501-0.259c-0.471-0.244-0.943-0.488-1.414-0.734
					c-0.043-0.022-0.076-0.023-0.119,0c-0.61,0.328-1.221,0.653-1.832,0.979c-0.018,0.01-0.036,0.018-0.062,0.031
					c0-0.025-0.003-0.045,0-0.063c0.093-0.563,0.186-1.126,0.28-1.688c0.022-0.129,0.041-0.257,0.065-0.385
					c0.008-0.043-0.009-0.069-0.038-0.096c-0.511-0.49-1.021-0.98-1.531-1.471c-0.007-0.007-0.013-0.015-0.025-0.029
					c0.144-0.022,0.28-0.043,0.417-0.064c0.445-0.068,0.891-0.135,1.336-0.203c0.124-0.019,0.249-0.04,0.374-0.055
					c0.052-0.006,0.079-0.027,0.101-0.073c0.302-0.625,0.605-1.25,0.909-1.874c0.007-0.013,0.014-0.026,0.024-0.043
					c0.003-0.006,0.006-0.012,0.01-0.019c0.04,0.079,0.077,0.15,0.113,0.221c0.287,0.573,0.573,1.146,0.862,1.718
					c0.012,0.024,0.046,0.049,0.072,0.053c0.696,0.099,1.392,0.194,2.088,0.291C298.429,390.506,298.447,390.511,298.459,390.514z"
					/>
				<path style="fill:#EBAC3B;" d="M306.377,390.514c-0.088,0.093-0.174,0.19-0.267,0.281c-0.345,0.342-0.692,0.683-1.039,1.025
					c-0.075,0.074-0.152,0.146-0.224,0.223c-0.019,0.02-0.033,0.059-0.028,0.086c0.107,0.613,0.217,1.225,0.327,1.838
					c0.017,0.095,0.033,0.191,0.052,0.303c-0.178-0.092-0.34-0.175-0.501-0.259c-0.471-0.244-0.944-0.488-1.414-0.734
					c-0.043-0.022-0.076-0.023-0.119,0c-0.61,0.328-1.221,0.653-1.832,0.979c-0.018,0.01-0.037,0.018-0.062,0.031
					c0-0.025-0.003-0.045,0-0.063c0.093-0.563,0.186-1.126,0.28-1.688c0.021-0.129,0.041-0.257,0.065-0.385
					c0.008-0.043-0.009-0.069-0.038-0.096c-0.511-0.49-1.021-0.98-1.531-1.471c-0.007-0.007-0.012-0.015-0.025-0.029
					c0.144-0.022,0.28-0.043,0.417-0.064c0.445-0.068,0.891-0.135,1.336-0.203c0.125-0.019,0.249-0.04,0.375-0.055
					c0.052-0.006,0.079-0.027,0.101-0.073c0.302-0.625,0.605-1.25,0.909-1.874c0.007-0.013,0.014-0.026,0.024-0.043
					c0.003-0.006,0.007-0.012,0.01-0.019c0.04,0.079,0.077,0.15,0.113,0.221c0.287,0.573,0.573,1.146,0.862,1.718
					c0.012,0.024,0.046,0.049,0.072,0.053c0.696,0.099,1.392,0.194,2.088,0.291C306.347,390.506,306.365,390.511,306.377,390.514z"
					/>
				<path style="fill:#EBAC3B;" d="M314.294,390.514c-0.088,0.093-0.174,0.19-0.266,0.281c-0.346,0.342-0.692,0.683-1.039,1.024
					c-0.075,0.074-0.152,0.146-0.224,0.223c-0.019,0.02-0.033,0.059-0.028,0.086c0.107,0.613,0.217,1.225,0.326,1.838
					c0.017,0.095,0.033,0.191,0.052,0.303c-0.178-0.092-0.339-0.175-0.501-0.259c-0.471-0.244-0.943-0.488-1.414-0.734
					c-0.043-0.022-0.076-0.023-0.12,0c-0.61,0.328-1.221,0.653-1.832,0.979c-0.018,0.01-0.036,0.018-0.062,0.031
					c0-0.025-0.003-0.045,0-0.063c0.093-0.563,0.186-1.126,0.28-1.688c0.022-0.129,0.041-0.257,0.065-0.385
					c0.008-0.043-0.009-0.069-0.038-0.096c-0.511-0.49-1.021-0.98-1.531-1.471c-0.007-0.007-0.013-0.015-0.025-0.029
					c0.144-0.022,0.28-0.043,0.417-0.064c0.445-0.068,0.891-0.135,1.336-0.203c0.125-0.019,0.249-0.04,0.375-0.055
					c0.051-0.006,0.079-0.027,0.101-0.073c0.302-0.625,0.605-1.25,0.909-1.874c0.007-0.013,0.014-0.026,0.024-0.043
					c0.003-0.006,0.007-0.012,0.01-0.019c0.04,0.079,0.077,0.15,0.113,0.221c0.287,0.573,0.573,1.146,0.862,1.718
					c0.012,0.024,0.046,0.049,0.072,0.053c0.696,0.099,1.392,0.194,2.088,0.291C314.264,390.506,314.282,390.511,314.294,390.514z"
					/>
				<path style="fill:#EBAC3B;" d="M322.212,390.514c-0.088,0.093-0.174,0.19-0.266,0.281c-0.345,0.342-0.692,0.683-1.039,1.024
					c-0.075,0.074-0.153,0.146-0.224,0.223c-0.019,0.02-0.033,0.059-0.028,0.086c0.107,0.613,0.217,1.225,0.326,1.838
					c0.017,0.095,0.033,0.191,0.052,0.303c-0.178-0.092-0.34-0.175-0.501-0.259c-0.471-0.244-0.943-0.488-1.414-0.734
					c-0.043-0.022-0.076-0.023-0.12,0c-0.61,0.328-1.221,0.653-1.832,0.979c-0.018,0.01-0.036,0.018-0.062,0.031
					c0-0.025-0.003-0.045,0-0.063c0.093-0.563,0.186-1.126,0.28-1.688c0.021-0.129,0.041-0.257,0.065-0.385
					c0.008-0.043-0.009-0.069-0.038-0.096c-0.511-0.49-1.021-0.98-1.531-1.471c-0.007-0.007-0.013-0.015-0.025-0.029
					c0.144-0.022,0.28-0.043,0.417-0.064c0.445-0.068,0.891-0.135,1.336-0.203c0.124-0.019,0.249-0.041,0.374-0.055
					c0.051-0.006,0.079-0.026,0.101-0.073c0.302-0.625,0.605-1.25,0.909-1.874c0.007-0.013,0.014-0.026,0.024-0.043
					c0.003-0.006,0.007-0.012,0.01-0.019c0.04,0.079,0.077,0.15,0.112,0.221c0.287,0.573,0.573,1.146,0.862,1.718
					c0.012,0.024,0.046,0.049,0.072,0.053c0.696,0.099,1.392,0.194,2.088,0.291C322.181,390.506,322.199,390.511,322.212,390.514z"
					/>
				<path style="fill:#5D95E8;" d="M330.129,390.514c-0.088,0.093-0.174,0.19-0.266,0.281c-0.345,0.342-0.692,0.683-1.039,1.024
					c-0.075,0.074-0.152,0.146-0.224,0.223c-0.019,0.02-0.033,0.059-0.028,0.086c0.107,0.613,0.217,1.225,0.326,1.838
					c0.017,0.095,0.033,0.191,0.052,0.303c-0.178-0.092-0.34-0.175-0.501-0.259c-0.471-0.244-0.943-0.488-1.414-0.734
					c-0.043-0.022-0.076-0.023-0.119,0c-0.61,0.327-1.221,0.653-1.832,0.979c-0.018,0.01-0.037,0.018-0.062,0.031
					c0-0.025-0.003-0.045,0-0.063c0.093-0.563,0.186-1.126,0.28-1.688c0.022-0.128,0.041-0.257,0.065-0.385
					c0.008-0.043-0.009-0.069-0.038-0.096c-0.51-0.49-1.021-0.98-1.531-1.471c-0.007-0.007-0.013-0.015-0.025-0.029
					c0.144-0.022,0.28-0.043,0.417-0.064c0.445-0.068,0.891-0.135,1.336-0.203c0.124-0.019,0.249-0.041,0.374-0.055
					c0.052-0.006,0.079-0.027,0.101-0.073c0.302-0.625,0.605-1.25,0.909-1.874c0.007-0.013,0.014-0.026,0.024-0.043
					c0.003-0.006,0.007-0.012,0.01-0.019c0.04,0.079,0.077,0.15,0.113,0.221c0.287,0.573,0.573,1.146,0.862,1.718
					c0.012,0.024,0.046,0.049,0.072,0.053c0.696,0.099,1.392,0.194,2.088,0.291C330.099,390.506,330.117,390.511,330.129,390.514z"
					/>
			</g>
			<g>
				<path style="fill:#EBAC3B;" d="M356.734,390.514c-0.088,0.093-0.174,0.19-0.266,0.281c-0.345,0.342-0.692,0.683-1.039,1.024
					c-0.075,0.074-0.153,0.146-0.224,0.223c-0.019,0.02-0.033,0.059-0.028,0.086c0.107,0.613,0.217,1.225,0.326,1.837
					c0.017,0.095,0.033,0.191,0.052,0.303c-0.178-0.092-0.34-0.175-0.501-0.259c-0.471-0.244-0.943-0.488-1.414-0.734
					c-0.043-0.022-0.076-0.023-0.119,0c-0.61,0.328-1.221,0.653-1.832,0.979c-0.018,0.01-0.036,0.018-0.062,0.031
					c0-0.025-0.003-0.045,0-0.063c0.093-0.563,0.186-1.126,0.28-1.688c0.022-0.129,0.041-0.257,0.065-0.385
					c0.008-0.043-0.009-0.069-0.038-0.096c-0.51-0.49-1.021-0.98-1.531-1.471c-0.007-0.007-0.013-0.015-0.025-0.029
					c0.144-0.022,0.28-0.043,0.417-0.064c0.445-0.068,0.891-0.135,1.336-0.203c0.125-0.019,0.249-0.04,0.374-0.055
					c0.052-0.006,0.079-0.027,0.102-0.073c0.302-0.625,0.605-1.25,0.909-1.874c0.007-0.013,0.014-0.026,0.024-0.043
					c0.003-0.006,0.007-0.012,0.01-0.019c0.04,0.079,0.077,0.15,0.113,0.221c0.287,0.573,0.573,1.146,0.862,1.718
					c0.012,0.024,0.046,0.049,0.072,0.053c0.696,0.099,1.392,0.194,2.088,0.291C356.704,390.506,356.722,390.511,356.734,390.514z"
					/>
				<path style="fill:#EBAC3B;" d="M364.652,390.514c-0.088,0.093-0.174,0.19-0.266,0.281c-0.345,0.342-0.692,0.683-1.038,1.025
					c-0.075,0.074-0.153,0.146-0.224,0.223c-0.019,0.02-0.033,0.059-0.028,0.086c0.107,0.613,0.217,1.225,0.326,1.838
					c0.017,0.095,0.033,0.191,0.052,0.303c-0.178-0.092-0.34-0.175-0.501-0.259c-0.471-0.244-0.943-0.488-1.414-0.734
					c-0.043-0.022-0.076-0.023-0.12,0c-0.61,0.328-1.221,0.653-1.832,0.979c-0.018,0.01-0.036,0.018-0.062,0.031
					c0-0.025-0.003-0.045,0-0.063c0.093-0.563,0.186-1.126,0.28-1.688c0.021-0.129,0.041-0.257,0.065-0.385
					c0.008-0.043-0.009-0.069-0.038-0.096c-0.511-0.49-1.021-0.98-1.531-1.471c-0.007-0.007-0.012-0.015-0.025-0.029
					c0.144-0.022,0.28-0.043,0.417-0.064c0.445-0.068,0.891-0.135,1.337-0.203c0.124-0.019,0.249-0.04,0.374-0.055
					c0.052-0.006,0.079-0.027,0.101-0.073c0.302-0.625,0.605-1.25,0.909-1.874c0.007-0.013,0.014-0.026,0.024-0.043
					c0.003-0.006,0.007-0.012,0.01-0.019c0.04,0.079,0.077,0.15,0.113,0.221c0.287,0.573,0.573,1.146,0.862,1.718
					c0.012,0.024,0.046,0.049,0.072,0.053c0.696,0.099,1.392,0.194,2.088,0.291C364.622,390.506,364.64,390.511,364.652,390.514z"/>
				<path style="fill:#EBAC3B;" d="M372.569,390.514c-0.088,0.093-0.174,0.19-0.266,0.281c-0.345,0.342-0.692,0.683-1.039,1.024
					c-0.075,0.074-0.152,0.146-0.224,0.223c-0.019,0.02-0.033,0.059-0.028,0.086c0.107,0.613,0.217,1.225,0.326,1.838
					c0.017,0.095,0.033,0.191,0.052,0.303c-0.178-0.092-0.339-0.175-0.501-0.259c-0.472-0.244-0.944-0.488-1.414-0.734
					c-0.043-0.022-0.076-0.023-0.119,0c-0.61,0.328-1.221,0.653-1.832,0.979c-0.018,0.01-0.037,0.018-0.062,0.031
					c0-0.025-0.003-0.045,0-0.063c0.093-0.563,0.186-1.126,0.28-1.688c0.021-0.129,0.041-0.257,0.065-0.385
					c0.008-0.043-0.009-0.069-0.038-0.096c-0.511-0.49-1.021-0.98-1.531-1.471c-0.007-0.007-0.012-0.015-0.025-0.029
					c0.144-0.022,0.28-0.043,0.417-0.064c0.445-0.068,0.891-0.135,1.336-0.203c0.124-0.019,0.249-0.04,0.374-0.055
					c0.052-0.006,0.079-0.027,0.101-0.073c0.302-0.625,0.605-1.25,0.909-1.874c0.006-0.013,0.014-0.026,0.023-0.043
					c0.003-0.006,0.007-0.012,0.01-0.019c0.04,0.079,0.077,0.15,0.113,0.221c0.287,0.573,0.573,1.146,0.862,1.718
					c0.012,0.024,0.046,0.049,0.072,0.053c0.696,0.099,1.392,0.194,2.088,0.291C372.539,390.506,372.557,390.511,372.569,390.514z"
					/>
				<path style="fill:#5D95E8;" d="M380.487,390.514c-0.088,0.093-0.174,0.19-0.266,0.281c-0.346,0.342-0.692,0.683-1.039,1.024
					c-0.075,0.074-0.152,0.146-0.224,0.223c-0.019,0.02-0.033,0.059-0.028,0.086c0.107,0.613,0.217,1.225,0.326,1.838
					c0.017,0.095,0.033,0.191,0.052,0.303c-0.178-0.092-0.339-0.175-0.501-0.259c-0.471-0.244-0.944-0.488-1.414-0.734
					c-0.043-0.022-0.076-0.023-0.119,0c-0.61,0.328-1.221,0.653-1.832,0.979c-0.018,0.01-0.036,0.018-0.062,0.031
					c0-0.025-0.003-0.045,0-0.063c0.093-0.563,0.186-1.126,0.28-1.688c0.022-0.129,0.041-0.257,0.065-0.385
					c0.008-0.043-0.009-0.069-0.038-0.096c-0.511-0.49-1.021-0.98-1.531-1.471c-0.007-0.007-0.013-0.015-0.025-0.029
					c0.144-0.022,0.28-0.043,0.417-0.064c0.445-0.068,0.891-0.135,1.336-0.203c0.125-0.019,0.249-0.041,0.375-0.055
					c0.051-0.006,0.079-0.026,0.101-0.073c0.302-0.625,0.605-1.25,0.909-1.874c0.007-0.013,0.014-0.026,0.024-0.043
					c0.003-0.006,0.007-0.012,0.01-0.019c0.04,0.079,0.077,0.15,0.112,0.221c0.287,0.573,0.573,1.146,0.862,1.718
					c0.012,0.024,0.046,0.049,0.072,0.053c0.696,0.099,1.392,0.194,2.088,0.291C380.456,390.506,380.474,390.511,380.487,390.514z"
					/>
				<path style="fill:#5D95E8;" d="M388.404,390.514c-0.088,0.093-0.174,0.19-0.266,0.281c-0.345,0.342-0.692,0.683-1.039,1.024
					c-0.075,0.074-0.153,0.146-0.224,0.223c-0.019,0.02-0.033,0.059-0.028,0.086c0.107,0.613,0.217,1.225,0.326,1.838
					c0.017,0.095,0.033,0.191,0.052,0.303c-0.178-0.092-0.34-0.175-0.501-0.259c-0.471-0.244-0.943-0.488-1.414-0.734
					c-0.043-0.022-0.076-0.023-0.119,0c-0.61,0.327-1.221,0.653-1.832,0.979c-0.018,0.01-0.036,0.018-0.062,0.031
					c0-0.025-0.003-0.045,0-0.063c0.093-0.563,0.186-1.126,0.28-1.688c0.022-0.128,0.041-0.257,0.065-0.385
					c0.008-0.043-0.009-0.069-0.038-0.096c-0.511-0.49-1.021-0.98-1.531-1.471c-0.007-0.007-0.012-0.015-0.025-0.029
					c0.144-0.022,0.28-0.043,0.417-0.064c0.445-0.068,0.891-0.135,1.336-0.203c0.125-0.019,0.249-0.041,0.374-0.055
					c0.052-0.006,0.079-0.027,0.101-0.073c0.302-0.625,0.605-1.25,0.909-1.874c0.007-0.013,0.014-0.026,0.024-0.043
					c0.003-0.006,0.007-0.012,0.01-0.019c0.04,0.079,0.077,0.15,0.113,0.221c0.287,0.573,0.573,1.146,0.862,1.718
					c0.012,0.024,0.046,0.049,0.072,0.053c0.696,0.099,1.392,0.194,2.088,0.291C388.374,390.506,388.392,390.511,388.404,390.514z"
					/>
			</g>
			<g>
				<path style="fill:#EBAC3B;" d="M415.009,390.514c-0.088,0.093-0.174,0.19-0.266,0.281c-0.345,0.342-0.692,0.683-1.039,1.024
					c-0.075,0.074-0.153,0.146-0.224,0.223c-0.019,0.02-0.033,0.059-0.028,0.086c0.107,0.613,0.217,1.225,0.326,1.837
					c0.017,0.095,0.033,0.191,0.052,0.303c-0.178-0.092-0.34-0.175-0.501-0.259c-0.471-0.244-0.943-0.488-1.414-0.734
					c-0.043-0.022-0.076-0.023-0.119,0c-0.61,0.328-1.221,0.653-1.832,0.979c-0.018,0.01-0.037,0.018-0.062,0.031
					c0-0.025-0.003-0.045,0-0.063c0.093-0.563,0.186-1.126,0.28-1.688c0.022-0.129,0.041-0.257,0.065-0.385
					c0.008-0.043-0.009-0.069-0.038-0.096c-0.51-0.49-1.021-0.98-1.531-1.471c-0.007-0.007-0.013-0.015-0.025-0.029
					c0.144-0.022,0.28-0.043,0.417-0.064c0.445-0.068,0.891-0.135,1.336-0.203c0.125-0.019,0.249-0.04,0.374-0.055
					c0.051-0.006,0.079-0.027,0.101-0.073c0.302-0.625,0.605-1.25,0.909-1.874c0.006-0.013,0.014-0.026,0.024-0.043
					c0.003-0.006,0.007-0.012,0.01-0.019c0.04,0.079,0.077,0.15,0.113,0.221c0.287,0.573,0.573,1.146,0.862,1.718
					c0.012,0.024,0.046,0.049,0.072,0.053c0.696,0.099,1.392,0.194,2.088,0.291C414.979,390.506,414.997,390.511,415.009,390.514z"
					/>
				<path style="fill:#EBAC3B;" d="M422.927,390.514c-0.088,0.093-0.174,0.19-0.266,0.281c-0.345,0.342-0.692,0.683-1.039,1.025
					c-0.075,0.074-0.153,0.146-0.224,0.223c-0.019,0.02-0.032,0.059-0.028,0.086c0.107,0.613,0.217,1.225,0.326,1.838
					c0.017,0.095,0.033,0.191,0.052,0.303c-0.178-0.092-0.34-0.175-0.501-0.259c-0.471-0.244-0.944-0.488-1.414-0.734
					c-0.043-0.022-0.076-0.023-0.119,0c-0.61,0.328-1.221,0.653-1.832,0.979c-0.018,0.01-0.036,0.018-0.062,0.031
					c0-0.025-0.003-0.045,0-0.063c0.093-0.563,0.186-1.126,0.28-1.688c0.021-0.129,0.041-0.257,0.065-0.385
					c0.008-0.043-0.009-0.069-0.038-0.096c-0.511-0.49-1.021-0.98-1.531-1.471c-0.007-0.007-0.013-0.015-0.025-0.029
					c0.144-0.022,0.28-0.043,0.417-0.064c0.445-0.068,0.891-0.135,1.336-0.203c0.125-0.019,0.249-0.04,0.374-0.055
					c0.052-0.006,0.079-0.027,0.102-0.073c0.302-0.625,0.605-1.25,0.909-1.874c0.007-0.013,0.014-0.026,0.024-0.043
					c0.003-0.006,0.007-0.012,0.01-0.019c0.04,0.079,0.077,0.15,0.113,0.221c0.287,0.573,0.573,1.146,0.862,1.718
					c0.012,0.024,0.046,0.049,0.072,0.053c0.696,0.099,1.392,0.194,2.088,0.291C422.897,390.506,422.914,390.511,422.927,390.514z"
					/>
				<path style="fill:#5D95E8;" d="M429.317,392.043c-0.023,0.022-0.034,0.056-0.034,0.09c0.112,0.607,0.225,1.225,0.326,1.832
					c0.023,0.101,0.034,0.191,0.056,0.303c-0.18-0.09-0.337-0.18-0.506-0.258c-0.472-0.247-0.944-0.483-1.405-0.73
					c-0.034-0.023-0.056-0.023-0.09-0.011c-0.011,0-0.022,0.011-0.034,0.011c-0.607,0.326-1.225,0.652-1.832,0.978
					c-0.022,0.011-0.034,0.011-0.067,0.034v-0.067c0.101-0.562,0.191-1.124,0.281-1.686c0.023-0.135,0.045-0.258,0.068-0.393
					c0.011-0.034-0.011-0.067-0.034-0.09c-0.517-0.494-1.023-0.978-1.528-1.472c-0.011-0.011-0.023-0.011-0.034-0.034
					c0.146-0.022,0.281-0.034,0.416-0.056c0.45-0.067,0.899-0.135,1.337-0.202c0.124-0.022,0.259-0.045,0.382-0.056
					c0.045-0.011,0.079-0.034,0.101-0.079c0.303-0.618,0.607-1.248,0.91-1.866c0-0.022,0.011-0.034,0.022-0.045
					c0-0.011,0-0.011,0.011-0.022c0.034,0.079,0.068,0.146,0.112,0.225c0.281,0.573,0.573,1.146,0.854,1.708
					c0.011,0.034,0.045,0.056,0.079,0.056c0.697,0.101,1.394,0.202,2.09,0.292c0.011,0,0.034,0.011,0.045,0.011
					c-0.09,0.09-0.18,0.191-0.27,0.281c-0.348,0.337-0.686,0.686-1.034,1.023C429.463,391.896,429.384,391.964,429.317,392.043z"/>
				<path style="fill:#5D95E8;" d="M438.762,390.514c-0.088,0.093-0.174,0.19-0.266,0.281c-0.345,0.342-0.692,0.683-1.039,1.024
					c-0.075,0.074-0.153,0.146-0.224,0.223c-0.019,0.02-0.033,0.059-0.028,0.086c0.107,0.613,0.217,1.225,0.326,1.838
					c0.017,0.095,0.033,0.191,0.052,0.303c-0.178-0.092-0.339-0.175-0.501-0.259c-0.471-0.244-0.944-0.488-1.414-0.734
					c-0.043-0.022-0.076-0.023-0.119,0c-0.611,0.328-1.221,0.653-1.832,0.979c-0.018,0.01-0.037,0.018-0.062,0.031
					c0-0.025-0.003-0.045,0-0.063c0.093-0.563,0.186-1.126,0.28-1.688c0.021-0.129,0.041-0.257,0.065-0.385
					c0.008-0.043-0.009-0.069-0.038-0.096c-0.511-0.49-1.021-0.98-1.531-1.471c-0.007-0.007-0.013-0.015-0.025-0.029
					c0.144-0.022,0.281-0.043,0.417-0.064c0.445-0.068,0.891-0.135,1.336-0.203c0.124-0.019,0.249-0.041,0.374-0.055
					c0.051-0.006,0.079-0.026,0.101-0.073c0.302-0.625,0.605-1.25,0.909-1.874c0.006-0.013,0.014-0.026,0.024-0.043
					c0.003-0.006,0.007-0.012,0.01-0.019c0.04,0.079,0.077,0.15,0.113,0.221c0.287,0.573,0.573,1.146,0.862,1.718
					c0.012,0.024,0.046,0.049,0.072,0.053c0.696,0.099,1.392,0.194,2.088,0.291C438.732,390.506,438.749,390.511,438.762,390.514z"
					/>
				<path style="fill:#5D95E8;" d="M446.679,390.514c-0.088,0.093-0.174,0.19-0.266,0.281c-0.345,0.342-0.692,0.683-1.039,1.024
					c-0.075,0.074-0.152,0.146-0.224,0.223c-0.019,0.02-0.033,0.059-0.028,0.086c0.107,0.613,0.217,1.225,0.326,1.838
					c0.017,0.095,0.033,0.191,0.052,0.303c-0.178-0.092-0.34-0.175-0.501-0.259c-0.471-0.244-0.943-0.488-1.414-0.734
					c-0.043-0.022-0.076-0.023-0.119,0c-0.61,0.327-1.221,0.653-1.832,0.979c-0.018,0.01-0.036,0.018-0.062,0.031
					c0-0.025-0.003-0.045,0-0.063c0.093-0.563,0.186-1.126,0.28-1.688c0.022-0.128,0.041-0.257,0.065-0.385
					c0.008-0.043-0.009-0.069-0.038-0.096c-0.511-0.49-1.021-0.98-1.531-1.471c-0.007-0.007-0.013-0.015-0.025-0.029
					c0.144-0.022,0.28-0.043,0.417-0.064c0.445-0.068,0.891-0.135,1.336-0.203c0.125-0.019,0.249-0.041,0.374-0.055
					c0.052-0.006,0.079-0.027,0.101-0.073c0.302-0.625,0.605-1.25,0.909-1.874c0.006-0.013,0.014-0.026,0.024-0.043
					c0.003-0.006,0.007-0.012,0.01-0.019c0.04,0.079,0.077,0.15,0.113,0.221c0.287,0.573,0.573,1.146,0.862,1.718
					c0.012,0.024,0.046,0.049,0.072,0.053c0.696,0.099,1.392,0.194,2.088,0.291C446.649,390.506,446.667,390.511,446.679,390.514z"
					/>
			</g>
		</g>
		<path style="fill:#383C56;" d="M403.086,84.973h-67.432c-1.138,0-2.06-0.923-2.06-2.06l0,0c0-1.138,0.922-2.061,2.06-2.061h67.432
			c1.138,0,2.06,0.923,2.06,2.061l0,0C405.146,84.05,404.224,84.973,403.086,84.973z"/>
		<g>
			<path style="fill:#FFFFFF;" d="M381.154,448.427c0,6.508-5.276,11.784-11.784,11.784c-6.508,0-11.784-5.276-11.784-11.784
				s5.276-11.784,11.784-11.784C375.878,436.643,381.154,441.919,381.154,448.427z"/>
			<path style="fill:#384870;" d="M378.89,448.427c0,5.258-4.262,9.52-9.52,9.52c-5.258,0-9.52-4.262-9.52-9.52
				c0-5.258,4.263-9.52,9.52-9.52C374.627,438.907,378.89,443.17,378.89,448.427z"/>
		</g>
	</g>
	<g>
		<g>
			<g>
				<line style="fill:none;stroke:#EBAC3B;stroke-miterlimit:10;" x1="418.258" y1="116.774" x2="418.258" y2="114.274"/>
				<path style="fill:none;stroke:#EBAC3B;stroke-miterlimit:10;stroke-dasharray:4.8544,4.8544;" d="M418.258,109.42V90.532
					c0,0,2.89-12.868,12.868-12.868c8.641,0,84.519,0.4,104.713,0.508"/>
				<path style="fill:none;stroke:#EBAC3B;stroke-miterlimit:10;" d="M538.263,78.185c1.611,0.009,2.496,0.013,2.496,0.013"/>
			</g>
		</g>
		<circle style="fill:#EBAC3B;" cx="418.258" cy="116.774" r="5.56"/>
		<g>
			<path style="fill:#5D95E8;" d="M659.733,53.467v47.753c0,8.59-6.953,15.555-15.544,15.555H532.535
				c-8.591,0-15.544-6.965-15.544-15.555V53.467c0-8.591,6.953-15.555,15.544-15.555H644.19
				C652.78,37.912,659.733,44.876,659.733,53.467z"/>
			<path style="fill:#4361B7;" d="M659.733,88.973v12.247c0,8.59-6.953,15.555-15.544,15.555H532.535
				c-8.591,0-15.544-6.965-15.544-15.555V88.973H659.733z"/>
			<path style="fill:#EBAC3B;" d="M601.966,108.625h-27.207c-3.339,0-6.046-2.707-6.046-6.046l0,0c0-3.339,2.707-6.046,6.046-6.046
				h27.207c3.339,0,6.046,2.707,6.046,6.046v0C608.012,105.918,605.305,108.625,601.966,108.625z"/>
			<g>
				
					<text transform="matrix(1 0 0 1 559.9395 70.1721)" style="fill:#FFFFFF; font-family:'Montserrat-Bold'; font-size:27.6362px;">404</text>
			</g>
			<path style="fill:#CBDDFE;" d="M617.902,83.117h-59.08c-1.594,0-2.887-1.292-2.887-2.887l0,0c0-1.594,1.292-2.887,2.887-2.887
				h59.08c1.594,0,2.887,1.292,2.887,2.887l0,0C620.789,81.824,619.496,83.117,617.902,83.117z"/>
		</g>
	</g>
	<g>
		<g>
			<g>
				<g>
					<line style="fill:none;stroke:#EBAC3B;stroke-miterlimit:10;" x1="644.263" y1="390.025" x2="644.263" y2="392.525"/>
					<path style="fill:none;stroke:#EBAC3B;stroke-miterlimit:10;stroke-dasharray:4.9435,4.9435;" d="M644.263,397.469v34.947
						c0,0,0.04,16.087-17.763,16.087H447.311c-6.477,0-11.727-5.25-11.727-11.727v-14.965"/>
					<line style="fill:none;stroke:#EBAC3B;stroke-miterlimit:10;" x1="435.584" y1="419.34" x2="435.584" y2="416.84"/>
				</g>
			</g>
			<circle style="fill:#EBAC3B;" cx="435.584" cy="412.401" r="5.56"/>
		</g>
		<g>
			<path style="fill:#5D95E8;" d="M711.382,245.982v133.87c0,7.03-5.208,12.849-11.979,13.791c-0.632,0.093-1.284,0.135-1.946,0.135
				H592.41c-0.662,0-1.315-0.041-1.946-0.135c-6.771-0.942-11.979-6.761-11.979-13.791v-133.87c0-7.693,6.233-13.925,13.925-13.925
				h105.046C705.149,232.057,711.382,238.289,711.382,245.982z"/>
			<path style="fill:#4361B7;" d="M711.382,317.597v62.255c0,7.03-5.208,12.849-11.979,13.791H590.464
				c-6.771-0.942-11.979-6.761-11.979-13.791v-62.255H711.382z"/>
			<path style="fill:#4361B7;" d="M700.517,312.917H675.56c-1.411,0-2.555-1.144-2.555-2.555v-48.092
				c0-1.411,1.144-2.555,2.555-2.555h24.957c1.411,0,2.555,1.144,2.555,2.555v48.092
				C703.072,311.773,701.928,312.917,700.517,312.917z"/>
			<path style="fill:#FFFFFF;" d="M666.768,262.885v46.87c0,1.74-1.42,3.16-3.17,3.16h-72.29c-1.75,0-3.16-1.42-3.16-3.16v-46.87
				c0-1.75,1.41-3.17,3.16-3.17h72.29C665.347,259.715,666.768,261.135,666.768,262.885z"/>
			<path style="fill:#4361B7;" d="M666.768,302.065v7.69c0,1.74-1.42,3.16-3.17,3.16h-72.29c-1.75,0-3.16-1.42-3.16-3.16v-7.69
				H666.768z"/>
			<path style="fill:#CBDDFE;" d="M700.613,249.264H590.821c-1.358,0-2.459-1.101-2.459-2.459v0c0-1.358,1.101-2.459,2.459-2.459
				h109.792c1.358,0,2.459,1.101,2.459,2.459v0C703.072,248.163,701.971,249.264,700.613,249.264z"/>
			<path style="fill:#CBDDFE;" d="M700.371,337.134H591.064c-1.492,0-2.702-1.21-2.702-2.702v-5.977c0-1.492,1.21-2.702,2.702-2.702
				h109.307c1.492,0,2.702,1.21,2.702,2.702v5.977C703.072,335.924,701.863,337.134,700.371,337.134z"/>
			<path style="fill:#CBDDFE;" d="M700.227,359.981h-89.336c-1.571,0-2.845-1.274-2.845-2.845v0c0-1.571,1.274-2.845,2.845-2.845
				h89.336c1.571,0,2.845,1.274,2.845,2.845v0C703.072,358.708,701.798,359.981,700.227,359.981z"/>
			<path style="fill:#EBAC3B;" d="M598.603,363.348h-8.058c-1.206,0-2.183-0.977-2.183-2.183v-8.058
				c0-1.206,0.977-2.183,2.183-2.183h8.058c1.206,0,2.183,0.977,2.183,2.183v8.058C600.786,362.371,599.809,363.348,598.603,363.348
				z"/>
			<path style="fill:#CBDDFE;" d="M664.753,376.297h-53.862c-1.571,0-2.845-1.274-2.845-2.845l0,0c0-1.571,1.274-2.845,2.845-2.845
				h53.862c1.571,0,2.845,1.274,2.845,2.845l0,0C667.599,375.023,666.325,376.297,664.753,376.297z"/>
			<path style="fill:#EBAC3B;" d="M598.603,379.664h-8.058c-1.206,0-2.183-0.977-2.183-2.183v-8.058
				c0-1.206,0.977-2.183,2.183-2.183h8.058c1.206,0,2.183,0.977,2.183,2.183v8.058C600.786,378.686,599.809,379.664,598.603,379.664
				z"/>
			<path style="fill:#EBAC3B;" d="M699.733,348.527h-15.029c-1.844,0-3.34-1.495-3.34-3.34v0c0-1.844,1.495-3.34,3.34-3.34h15.029
				c1.844,0,3.34,1.495,3.34,3.34v0C703.072,347.031,701.577,348.527,699.733,348.527z"/>
			<g>
				<path style="fill:#CBDDFE;" d="M696.368,272.442H679.71c-1.382,0-2.501-1.12-2.501-2.501v-4.3c0-1.382,1.12-2.501,2.501-2.501
					h16.659c1.381,0,2.501,1.12,2.501,2.501v4.3C698.87,271.322,697.75,272.442,696.368,272.442z"/>
				<path style="fill:#CBDDFE;" d="M696.368,284.793H679.71c-1.382,0-2.501-1.12-2.501-2.501v-4.3c0-1.381,1.12-2.501,2.501-2.501
					h16.659c1.381,0,2.501,1.12,2.501,2.501v4.3C698.87,283.673,697.75,284.793,696.368,284.793z"/>
				<path style="fill:#CBDDFE;" d="M696.368,297.143H679.71c-1.382,0-2.501-1.12-2.501-2.501v-4.3c0-1.381,1.12-2.501,2.501-2.501
					h16.659c1.381,0,2.501,1.12,2.501,2.501v4.3C698.87,296.023,697.75,297.143,696.368,297.143z"/>
				<path style="fill:#CBDDFE;" d="M696.368,309.494H679.71c-1.382,0-2.501-1.12-2.501-2.501v-4.3c0-1.382,1.12-2.501,2.501-2.501
					h16.659c1.381,0,2.501,1.12,2.501,2.501v4.3C698.87,308.374,697.75,309.494,696.368,309.494z"/>
			</g>
			<path style="fill:#CBDDFE;" d="M661.359,307.492h-62.045c-0.426,0-0.771-0.345-0.771-0.771l0,0c0-0.426,0.345-0.771,0.771-0.771
				h62.045c0.426,0,0.771,0.345,0.771,0.771l0,0C662.13,307.147,661.785,307.492,661.359,307.492z"/>
			<path style="fill:#EBAC3B;" d="M632.763,307.492h-33.448c-0.426,0-0.771-0.345-0.771-0.771l0,0c0-0.426,0.345-0.771,0.771-0.771
				h33.448c0.426,0,0.771,0.345,0.771,0.771l0,0C633.534,307.147,633.189,307.492,632.763,307.492z"/>
			<path style="fill:#CBDDFE;" d="M595.08,307.492h-4.178c-0.426,0-0.771-0.345-0.771-0.771l0,0c0-0.426,0.345-0.771,0.771-0.771
				h4.178c0.426,0,0.771,0.345,0.771,0.771l0,0C595.852,307.147,595.506,307.492,595.08,307.492z"/>
			<circle style="fill:#FFFFFF;" cx="633.534" cy="306.396" r="2.967"/>
			<g>
				<circle style="fill:#4361B7;" cx="627.453" cy="279.932" r="11.19"/>
				<g>
					<path style="fill:#FFFFFF;" d="M625.545,284.815h-1.071c-0.372,0-0.674-0.302-0.674-0.674v-8.417
						c0-0.372,0.302-0.674,0.674-0.674h1.071c0.372,0,0.674,0.302,0.674,0.674v8.417
						C626.219,284.513,625.918,284.815,625.545,284.815z"/>
					<path style="fill:#FFFFFF;" d="M630.432,284.815h-1.071c-0.372,0-0.674-0.302-0.674-0.674v-8.417
						c0-0.372,0.302-0.674,0.674-0.674h1.071c0.372,0,0.674,0.302,0.674,0.674v8.417
						C631.106,284.513,630.805,284.815,630.432,284.815z"/>
				</g>
			</g>
		</g>
	</g>
	<g>
		<g>
			<g>
				<path style="fill:#FFFFFF;" d="M456.775,163.874l-0.795,0.795l-5.95-5.95c-0.554-0.555-1.453-0.555-2.008,0l-10.256,10.256
					c-0.994,0.993-2.605,0.993-3.598,0l-3.638-3.638c-0.993-0.993-0.993-2.604,0-3.598l3.632-3.632l0.795,0.795l-3.631,3.631
					c-0.555,0.555-0.555,1.454,0,2.009l3.638,3.638c0.555,0.555,1.454,0.555,2.008,0l10.256-10.256c0.993-0.993,2.604-0.993,3.597,0
					L456.775,163.874z"/>
				
					<rect x="457.919" y="161.974" transform="matrix(0.7071 -0.7071 0.7071 0.7071 15.6117 375.3627)" style="fill:#EBAC3B;" width="5.994" height="13.724"/>
			</g>
			<g>
				<path style="fill:#4361B7;" d="M454.277,143.582c0,1.236-0.472,2.473-1.405,3.405l-1.18,1.191l-4.012,4.001l-4.068,4.068
					l-4.001,4.012l-0.517,0.506c-2.602,2.602-7.449,1.597-8.316-3.015c-0.233-1.238,0.239-2.507,1.129-3.397l14.166-14.166
					c1.877-1.877,4.923-1.877,6.799,0C453.805,141.132,454.277,142.357,454.277,143.582z"/>
				<path style="fill:#5D95E8;" d="M448.589,144.937c-0.562-0.562-1.304-0.843-2.034-0.843c-1.401,0-2.802,1.002-2.992,3.007
					c-0.047,0.495,0.236,1.194,0.588,1.545l2.842,2.842c-0.438-0.258-0.944-0.393-1.45-0.393c-0.742,0-1.472,0.281-2.034,0.843
					c-0.944,0.944-1.09,2.383-0.45,3.484l-1.36-1.36c-0.562-0.562-1.304-0.843-2.034-0.843c-1.392,0-2.824,1.019-2.976,3.059
					c-0.042,0.56,0.189,1.111,0.587,1.509l2.412,2.412l4.001-4.012l0.067-0.068l3.934-3.933l0.067-0.067l4.012-4.001
					L448.589,144.937z"/>
			</g>
		</g>
		<g>
			<rect x="523.779" y="175.466" style="fill:#F1CBC2;" width="9.639" height="35.762"/>
			<g>
				<path style="fill:#F1CBC2;" d="M543.531,164.384c0-5.027-4.075-9.102-9.102-9.102h-18.355c-5.027,0-9.102-1.36-9.102,3.667
					v17.592c-0.001,0.002-0.003,0.01-0.003,0.01s-5.826,18.284,13.814,17.963c3.365-0.055,10.184-0.367,12.643-1.607
					c5.922-2.961,9.997-9.051,10.092-16.108h0.013V164.384z"/>
				<path style="fill:#383C56;" d="M543.526,162.234v14.317c0,11.838-10.101,16.357-10.101,16.357v-15.341v-17.733h-26.272
					c-3.88-0.786-9.775-11.981,4.645-17.069c0,0-0.82,6.422,3.25,6.588c4.07,0.166,18.377,0,18.377,0
					S543.526,147.956,543.526,162.234z"/>
				<rect x="521.23" y="158.948" style="fill:#383C56;" width="15.452" height="16.099"/>
				<path style="fill:#F1CBC2;" d="M536.801,175.047c0,2.192-1.206,4.102-2.991,5.102c-0.844,0.473-1.818,0.743-2.854,0.743
					c-3.228,0-5.845-2.617-5.845-5.845c0-3.228,2.617-5.845,5.845-5.845C534.184,169.202,536.801,171.819,536.801,175.047z"/>
				<path style="fill:#383C56;" d="M512.975,172.124c0,1.614-0.573,2.923-1.281,2.923c-0.707,0-1.281-1.308-1.281-2.923
					c0-1.614,0.573-2.923,1.281-2.923C512.402,169.202,512.975,170.51,512.975,172.124z"/>
				<path style="fill:#FFFFFF;" d="M514.295,185.026c-0.526,1.173-1.557,2.785-3.418,3.46c-0.224,0.081-0.487,0-0.632-0.19
					c-0.977-1.283-1.431-2.736-1.633-3.973c-0.056-0.343,0.21-0.652,0.557-0.652h4.24
					C514.107,183.671,514.58,184.388,514.295,185.026z"/>
				<path style="fill:#F1CBC2;" d="M507.765,171.574c0,0-1.855,4.116-3.202,5.693c-2.953,3.456,4.041,2.928,4.041,2.928
					L507.765,171.574z"/>
			</g>
			<g>
				<polygon style="fill:#4361B7;" points="557.807,391.472 539.333,400.413 519.766,353.267 516.247,283.672 539.82,283.672 
					540.184,350.225 				"/>
				<path style="fill:#5D95E8;" d="M529.288,405.946h-21.455c-3.74-40.758-3.74-81.516,0-122.274h28.306l-10.997,65.564
					L529.288,405.946z"/>
				<path style="fill:#383C56;" d="M507.833,405.42v3.15c0,0-14.594-0.209-14.594,10.812h14.594h21.168V408.57v-3.15H507.833z"/>
				<path style="fill:#383C56;" d="M539.211,401.365l1.149,2.933c0,0-13.665,5.128-9.645,15.39l13.589-5.323l19.71-7.721
					l-3.944-10.067l-1.149-2.933L539.211,401.365z"/>
				<path style="fill:#4361B7;" d="M559.807,393.75l-20.847,8.414c-1.112,0.449-2.377-0.089-2.826-1.2l0,0
					c-0.45-1.112,0.088-2.379,1.201-2.827l20.847-8.414c1.112-0.449,2.377,0.089,2.826,1.2l0,0
					C561.457,392.035,560.919,393.301,559.807,393.75z"/>
				<path style="fill:#5D95E8;" d="M529.677,406.667H507.2c-1.2,0-2.172-0.973-2.172-2.172l0,0c0-1.2,0.973-2.172,2.172-2.172
					h22.477c1.2,0,2.172,0.973,2.172,2.172l0,0C531.849,405.694,530.877,406.667,529.677,406.667z"/>
			</g>
			<g>
				<path style="fill:#E5B7AE;" d="M562.656,241.262c0.864,1.917,0.639,4.231-0.759,5.972l-25.965,26.588
					c-1.657,2.064-4.385,2.383-6.45,0.725c-2.064-1.656-1.945-4.258-0.287-6.323l20.308-23.939l-16.386-25.756
					c-2.372-2.118-1.586-7.34,0.532-9.71c2.116-2.371,7.067-1.988,9.438,0.129C543.088,208.949,562.335,240.549,562.656,241.262z"/>
				<path style="fill:#383C56;" d="M544.177,208.785l12.126,20.092c0.325,0.538,0.152,1.238-0.386,1.563l-15.463,9.332
					c-0.538,0.325-1.238,0.152-1.563-0.386l-12.126-20.091c-2.57-4.257-1.201-9.792,3.057-12.362l2.395-4.633
					C538.313,201.604,541.607,204.527,544.177,208.785z"/>
			</g>
			<path style="fill:#383C56;" d="M538.677,292.89h-34.299c-1.688,0-3.023-1.389-2.91-3.027l6.465-69.5
				c0-11.084,11.085-21.73,15.529-21.73h9.368c4.84,0,10.966,7.846,10.966,23.961l-2.203,67.459
				C541.593,291.62,540.288,292.89,538.677,292.89z"/>
			<path style="fill:#F1CBC2;" d="M483.75,223.481c-2.256,0-4.419-1.241-5.505-3.375l-14.55-37.109
				c-1.288-2.53-0.396-5.339,2.135-6.626c2.529-1.288,5.02-0.024,6.309,2.507l14.453,30.41l29.863-4.542
				c3.116-1.385,7.876,1.686,9.259,4.801c1.385,3.115-1.172,7.787-4.287,9.171C521.428,218.718,484.589,223.481,483.75,223.481z"/>
			<path style="fill:#383C56;" d="M522.03,221.738l-21.224,3.232c-0.598,0.091-1.157-0.32-1.248-0.918l-2.617-17.184
				c-0.091-0.598,0.32-1.157,0.918-1.248l21.224-3.232c5.343-0.814,10.335,2.858,11.148,8.202l0,0
				C531.045,215.933,527.373,220.924,522.03,221.738z"/>
			<path style="fill:#F1CBC2;" d="M457.104,168.594l5.979,0.978c1.015,0.166,1.637-1.077,0.896-1.789l0,0
				c-0.681-0.655-0.217-1.825,0.728-1.805c1.665,0.035,3.862,0.646,5.254,3.237c2.486,4.63,2.179,9.664,2.179,9.664l-8.443,4.119
				c0,0-12.253-3.462-7.717-13.799C456.169,168.764,456.636,168.517,457.104,168.594z"/>
		</g>
		<g>
			<rect x="491.792" y="419.382" style="fill:#CBDDFE;" width="66.699" height="50.095"/>
			<rect x="521.149" y="419.382" style="fill:#7BA9FA;" width="37.343" height="50.095"/>
		</g>
	</g>
	<g>
		<path style="fill:#EBAC3B;" d="M316.026,277.445c0,3.07-2.489,5.56-5.56,5.56s-5.56-2.489-5.56-5.56c0-3.071,2.489-5.56,5.56-5.56
			S316.026,274.375,316.026,277.445z"/>
		<g>
			<g>
				<line style="fill:none;stroke:#EBAC3B;stroke-miterlimit:10;" x1="310.711" y1="277.079" x2="308.211" y2="277.079"/>
				<path style="fill:none;stroke:#EBAC3B;stroke-miterlimit:10;stroke-dasharray:5.0136,5.0136;" d="M303.198,277.079H118.522
					c-6.477,0-11.727,5.25-11.727,11.727v4.971"/>
				<line style="fill:none;stroke:#EBAC3B;stroke-miterlimit:10;" x1="106.795" y1="296.283" x2="106.795" y2="298.783"/>
			</g>
		</g>
		<g>
			<g>
				<path style="fill:#5D95E8;" d="M174.285,298.655v94.718c0,4-3.237,7.237-7.237,7.237H46.199c-3.991,0-7.227-3.236-7.227-7.237
					v-94.718c0-4,3.236-7.237,7.227-7.237h120.849C171.049,291.418,174.285,294.655,174.285,298.655z"/>
				<path style="fill:#4361B7;" d="M174.285,371.081v22.293c0,4-3.237,7.237-7.237,7.237H46.199c-3.991,0-7.227-3.236-7.227-7.237
					v-22.293H174.285z"/>
				<path style="fill:#EBAC3B;" d="M125.643,391.716H94.119c-3.869,0-7.006-3.136-7.006-7.006l0,0c0-3.869,3.136-7.006,7.006-7.006
					h31.525c3.869,0,7.005,3.136,7.005,7.005v0C132.649,388.58,129.512,391.716,125.643,391.716z"/>
				<path style="fill:#FFFFFF;" d="M135.12,311.677H75.452c-1.48,0-2.68-1.2-2.68-2.68v-0.051c0-1.48,1.2-2.68,2.68-2.68h59.669
					c1.48,0,2.68,1.2,2.68,2.68v0.051C137.8,310.478,136.6,311.677,135.12,311.677z"/>
				<g>
					<g>
						<path style="fill:#CBDDFE;" d="M77.329,331.938H55.36c-1.334,0-2.416-1.082-2.416-2.416v-0.192
							c0-1.335,1.082-2.416,2.416-2.416h21.969c1.334,0,2.416,1.082,2.416,2.416v0.192
							C79.745,330.856,78.663,331.938,77.329,331.938z"/>
						<g>
							<path style="fill:#FFFFFF;" d="M153.286,329.254c0,0.375-0.468,0.682-1.04,0.682H99.395c-0.572,0-1.04-0.307-1.04-0.682
								c0-0.375,0.468-0.682,1.04-0.682h52.851C152.818,328.571,153.286,328.878,153.286,329.254z"/>
							<g>
								<path style="fill:#CBDDFE;" d="M95.935,328.314l-2.737,0.94l2.737,0.94v1.536l-4.608-1.671v-1.608l4.608-1.671V328.314z"/>
								<path style="fill:#CBDDFE;" d="M155.706,326.778l4.608,1.671v1.608l-4.608,1.671v-1.536l2.737-0.94l-2.737-0.94V326.778z"/>
							</g>
							<path style="fill:#EBAC3B;" d="M128.014,328.903c0,1.39-1.127,2.518-2.518,2.518c-1.39,0-2.518-1.127-2.518-2.518
								c0-1.391,1.127-2.518,2.518-2.518C126.887,326.385,128.014,327.512,128.014,328.903z"/>
						</g>
					</g>
					<g>
						<path style="fill:#CBDDFE;" d="M69.01,344.181H55.36c-1.334,0-2.416-1.082-2.416-2.416v-0.192
							c0-1.335,1.082-2.416,2.416-2.416h13.65c1.335,0,2.416,1.082,2.416,2.416v0.192C71.426,343.099,70.344,344.181,69.01,344.181z
							"/>
						<g>
							<path style="fill:#FFFFFF;" d="M153.286,341.496c0,0.375-0.468,0.682-1.04,0.682H99.395c-0.572,0-1.04-0.307-1.04-0.682
								c0-0.375,0.468-0.682,1.04-0.682h52.851C152.818,340.814,153.286,341.121,153.286,341.496z"/>
							<g>
								<path style="fill:#CBDDFE;" d="M95.935,340.557l-2.737,0.94l2.737,0.94v1.536l-4.608-1.671v-1.608l4.608-1.671V340.557z"/>
								<path style="fill:#CBDDFE;" d="M155.706,339.021l4.608,1.671v1.608l-4.608,1.671v-1.536l2.737-0.94l-2.737-0.94V339.021z"/>
							</g>
							<path style="fill:#EBAC3B;" d="M142.904,341.146c0,1.391-1.127,2.518-2.518,2.518c-1.391,0-2.518-1.127-2.518-2.518
								s1.127-2.518,2.518-2.518C141.777,338.628,142.904,339.755,142.904,341.146z"/>
						</g>
					</g>
					<g>
						<path style="fill:#CBDDFE;" d="M80.71,356.423H55.36c-1.334,0-2.416-1.082-2.416-2.416v-0.192
							c0-1.335,1.082-2.416,2.416-2.416H80.71c1.334,0,2.416,1.082,2.416,2.416v0.192C83.127,355.341,82.045,356.423,80.71,356.423z
							"/>
						<g>
							<path style="fill:#FFFFFF;" d="M153.286,353.74c0,0.375-0.468,0.682-1.04,0.682H99.395c-0.572,0-1.04-0.307-1.04-0.682
								c0-0.375,0.468-0.682,1.04-0.682h52.851C152.818,353.057,153.286,353.364,153.286,353.74z"/>
							<g>
								<path style="fill:#CBDDFE;" d="M95.935,352.8l-2.737,0.94l2.737,0.94v1.536l-4.608-1.671v-1.608l4.608-1.671V352.8z"/>
								<path style="fill:#CBDDFE;" d="M155.706,351.264l4.608,1.671v1.608l-4.608,1.671v-1.536l2.737-0.94l-2.737-0.94V351.264z"/>
							</g>
							<path style="fill:#EBAC3B;" d="M115.589,353.389c0,1.39-1.127,2.518-2.518,2.518c-1.391,0-2.518-1.127-2.518-2.518
								c0-1.391,1.127-2.518,2.518-2.518C114.461,350.871,115.589,351.998,115.589,353.389z"/>
						</g>
					</g>
				</g>
			</g>
		</g>
	</g>
	<g>
		
			<rect x="215.962" y="242.447" transform="matrix(-0.9654 -0.2609 0.2609 -0.9654 365.5397 565.8873)" style="fill:#F1CBC2;" width="8.749" height="32.46"/>
		<g>
			<path style="fill:#E5B7AE;" d="M201.089,353.157l1.786,42.317c0.055,1.311-0.305,2.605-1.029,3.699l-30.809,46.525
				c-2.185,3.3-0.776,7.774,2.905,9.227l0,0c2.537,1.001,3.728-0.518,5.436-2.644l41.13-48.337c0.786-0.979,1.258-2.173,1.354-3.424
				l3.503-45.908c0.256-3.359-2.206-6.312-5.557-6.664l-11.85-1.243C204.178,346.307,200.928,349.36,201.089,353.157z"/>
			<path style="fill:#383C56;" d="M181.9,452.011c0,0,9.216,7.595,13.121,14.322c0.882,1.521-0.664,3.302-2.305,2.672l-9.673-3.715
				l-12.327-7.669l-1.141,2.495l-6.291-2.417c0.918-5.102,4.034-8.996,8.024-12.41L181.9,452.011z"/>
		</g>
		<g>
			<path style="fill:#F1CBC2;" d="M202.643,358.238l16.841,38.863c0.522,1.204,0.65,2.541,0.366,3.822l-12.077,54.479
				c-0.857,3.864,2.063,7.535,6.02,7.571l0,0c2.727,0.025,3.295-1.82,4.127-4.417l21.062-59.871
				c0.383-1.196,0.395-2.479,0.036-3.682l-13.192-44.111c-0.965-3.228-4.323-5.101-7.577-4.228l-11.508,3.088
				C203.07,350.736,201.132,354.751,202.643,358.238z"/>
			<path style="fill:#383C56;" d="M220.178,457.398c0,0,11.327,3.785,17.384,8.665c1.369,1.103,0.565,3.321-1.193,3.321h-10.362
				l-14.258-2.739l-0.171,2.739h-6.74c-0.973-5.091,0.54-9.844,3.04-14.462L220.178,457.398z"/>
		</g>
		<path style="fill:#383C56;" d="M226.077,334.094c6.606,18.409,11.163,35.249,12.854,49.895c0.646,2.506-0.427,5.024-2.375,5.648
			c-12.498,4.004-25.174,5.795-38.074,4.796c-2.1-0.163-3.809-2.483-3.757-5.114c-3.26-22.192-4.891-45.073,0.049-60.36
			L226.077,334.094z"/>
		<path style="fill:#EBAC3B;" d="M201.977,261.21c0,0-11.736,16.144,0,39.226l-9.817,25.599c-1.068,2.274,0.468,4.875,3.098,5.244
			l31.122,4.373c1.225,0.172,2.325-0.718,2.317-1.875l-0.27-38.59c0,0,6.688-2.368,7.279-7.991
			c0.991-9.422-14.536-23.328-14.536-23.328L201.977,261.21z"/>
		<g>
			<path style="fill:#F1CBC2;" d="M260.53,326.945c-0.65,0-1.311-0.13-1.946-0.405l-35.014-13.514
				c-1.156-0.501-2.075-1.427-2.566-2.587l-19.95-35.265c-1.055-2.493-0.042-10.305,2.249-11.747
				c3.832-2.412,8.115,0.006,9.173,2.501l15.53,36.68l34.476,14.935c2.485,1.076,3.626,3.963,2.55,6.447
				C264.231,325.84,262.426,326.945,260.53,326.945z"/>
		</g>
		<path style="fill:#F1CBC2;" d="M267.429,329.906l-0.932-5.699c-0.158-0.967,1.026-1.56,1.705-0.853v0
			c0.624,0.649,1.739,0.207,1.72-0.694c-0.034-1.587-0.616-3.681-3.085-5.008c-4.413-2.37-9.211-2.077-9.211-2.077l-3.926,8.048
			c0,0,3.3,11.679,13.152,7.355C267.267,330.797,267.502,330.353,267.429,329.906z"/>
		<g>
			<path style="fill:#F1CBC2;" d="M239.238,247.863v0.01c0,0,0.181,4.096-1.556,7.809c-0.153,0.315-0.315,0.63-0.487,0.926
				c-2.091,3.638-6.301,6.502-14.76,4.067c-3.017-0.869-9.07-2.807-10.989-4.516c-4.602-4.105-6.788-10.578-5.155-16.956h-0.019
				l3.026-11.17c1.222-4.525,5.881-7.198,10.397-5.976l16.516,4.458c4.525,1.222,8.525,0.993,7.303,5.518L239.238,247.863z"/>
			<path style="fill:#383C56;" d="M225.638,240.074c2.228-2.162,5.323-5.885,5.991-10.36c0,0,8.35,8.831,12.109,8.831
				c3.758,0,7.697-9.399,4.355-15.917c-3.342-6.519-16.464-6.996-16.464-6.996s-13.366-8.238-20.959-1.117
				c-14.171,13.29,1.562,25.097-14.012,36.856c-12.411,9.371-6.906,26.079,11.616,26.074c10.438-0.002,13.66-10.79,14.914-31.988
				C223.308,243.415,224.17,241.499,225.638,240.074z"/>
			<path style="fill:#383C56;" d="M234.908,242.429c-0.393,1.452-0.195,2.769,0.442,2.941s1.471-0.866,1.863-2.318
				c0.393-1.452,0.195-2.769-0.442-2.941C236.135,239.939,235.3,240.977,234.908,242.429z"/>
			<polygon style="fill:#383C56;" points="236.771,240.111 238.964,240.891 237.054,241.671 			"/>
			<path style="fill:#F1CBC2;" d="M239.73,243.202c0,0,0.668,4.155,1.497,5.902c1.816,3.828-4.349,1.651-4.349,1.651L239.73,243.202
				z"/>
			<path style="fill:#CA7E86;" d="M237.682,255.682c-0.153,0.315-0.315,0.63-0.487,0.926c-1.785-0.181-4.067-1.031-4.544-3.466
				c-0.057-0.267,0.115-0.516,0.372-0.563c0.258-0.057,0.506,0.115,0.563,0.372C234.035,255.234,236.469,255.635,237.682,255.682z"
				/>
		</g>
	</g>
	<g>
		<g>
			<g>
				<g>
					<path style="fill:#FFFFFF;" d="M189.798,66.274c0.153,0.077,0.343,0.015,0.418-0.14c0.911-1.878,1.535-3.882,1.856-5.962
						l0.008-0.057l-3.184-0.491c-0.163-0.025-0.273-0.176-0.251-0.34c0.221-1.653,0.198-3.285-0.037-4.861
						c-0.024-0.164,0.084-0.316,0.248-0.343l2.875-0.475c0.169-0.028,0.286-0.191,0.255-0.359c-0.354-1.956-0.984-3.848-1.877-5.632
						c-0.077-0.153-0.267-0.214-0.42-0.135l-2.59,1.344c-0.147,0.076-0.325,0.02-0.404-0.126c-0.775-1.431-1.747-2.748-2.885-3.913
						c-0.116-0.118-0.117-0.305-0.001-0.423l2.052-2.077c0.121-0.122,0.119-0.322-0.005-0.441c-1.44-1.381-3.061-2.544-4.825-3.461
						c-0.152-0.079-0.342-0.016-0.419,0.137l-1.305,2.605c-0.074,0.148-0.251,0.207-0.401,0.135
						c-1.51-0.726-3.148-1.247-4.887-1.515c-0.014-0.002-0.027-0.003-0.041-0.005l0.481-3.169c0.026-0.17-0.094-0.332-0.264-0.355
						c-1.978-0.271-3.97-0.259-5.931,0.033c-0.17,0.025-0.287,0.189-0.259,0.358l0.473,2.875c0.027,0.163-0.083,0.315-0.245,0.345
						c-1.616,0.296-3.166,0.817-4.611,1.536c-0.148,0.074-0.327,0.018-0.403-0.13l-1.343-2.591c-0.079-0.152-0.27-0.213-0.421-0.132
						c-1.752,0.941-3.357,2.122-4.776,3.514c-0.122,0.12-0.122,0.32,0,0.441l2.074,2.053c0.118,0.117,0.119,0.304,0.004,0.423
						c-1.116,1.166-2.076,2.49-2.84,3.944c-0.077,0.147-0.254,0.206-0.402,0.132l-2.604-1.307c-0.153-0.077-0.343-0.014-0.418,0.14
						c-0.903,1.868-1.522,3.862-1.841,5.931l-0.005,0.029l3.183,0.475c0.164,0.024,0.275,0.177,0.253,0.341
						c-0.226,1.658-0.206,3.295,0.027,4.876c0.024,0.164-0.085,0.316-0.249,0.342l-2.874,0.47c-0.169,0.028-0.286,0.19-0.256,0.359
						c0.35,1.957,0.978,3.85,1.868,5.636c0.077,0.154,0.267,0.214,0.419,0.135l2.591-1.34c0.147-0.076,0.325-0.019,0.404,0.127
						c0.773,1.433,1.743,2.752,2.878,3.919c0.116,0.119,0.117,0.306,0,0.423l-2.054,2.072c-0.121,0.122-0.12,0.322,0.004,0.441
						c1.438,1.384,3.056,2.549,4.819,3.469c0.152,0.079,0.342,0.017,0.419-0.137l1.309-2.602c0.075-0.148,0.252-0.207,0.401-0.135
						c1.517,0.733,3.163,1.258,4.913,1.528c0.005,0.001,0.009,0.001,0.014,0.002l-0.486,3.166c-0.026,0.17,0.093,0.332,0.263,0.356
						c1.977,0.274,3.969,0.266,5.93-0.023c0.17-0.025,0.288-0.188,0.26-0.358l-0.468-2.875c-0.027-0.163,0.083-0.315,0.246-0.344
						c1.617-0.294,3.168-0.813,4.614-1.53c0.149-0.074,0.327-0.017,0.403,0.13l1.338,2.592c0.079,0.152,0.269,0.213,0.421,0.132
						c1.753-0.938,3.36-2.116,4.782-3.507c0.123-0.12,0.122-0.32,0-0.441l-2.07-2.056c-0.118-0.117-0.118-0.304-0.003-0.423
						c1.118-1.164,2.08-2.487,2.846-3.941c0.077-0.147,0.254-0.206,0.402-0.131L189.798,66.274z M173.042,66.059
						c-7.674,1.241-13.326-6.474-9.831-13.417c1.264-2.509,3.698-4.293,6.471-4.742c7.675-1.242,13.329,6.474,9.832,13.418
						C178.25,63.827,175.816,65.61,173.042,66.059z"/>
				</g>
			</g>
			<g>
				<g>
					<path style="fill:#FFFFFF;" d="M675.418,212.807c1.491-1.39,2.753-3.007,3.751-4.803l0.026-0.047l-2.861-1.588
						c0.842-1.53,1.408-3.138,1.719-4.768l3.22,0.619c0.386-2.007,0.451-4.057,0.195-6.094l-3.256,0.41
						c-0.213-1.686-0.689-3.33-1.409-4.869l2.973-1.391c-0.87-1.859-2.02-3.558-3.417-5.05l-2.392,2.241
						c-1.125-1.203-2.451-2.255-3.967-3.097c-0.011-0.006-0.023-0.012-0.034-0.018l1.581-2.865
						c-1.799-0.993-3.726-1.692-5.728-2.079l-0.621,3.22c-1.687-0.324-3.396-0.373-5.066-0.163l-0.408-3.257
						c-2.03,0.254-3.999,0.822-5.852,1.687l1.389,2.974c-1.525,0.711-2.947,1.661-4.203,2.833l-2.239-2.394
						c-1.481,1.385-2.735,2.994-3.728,4.782l-0.013,0.023l2.868,1.573c-0.85,1.533-1.42,3.145-1.735,4.78l-3.217-0.624
						c-0.389,2.007-0.458,4.057-0.205,6.094l3.255-0.405c0.21,1.687,0.683,3.332,1.401,4.873l-2.974,1.386
						c0.867,1.86,2.014,3.561,3.409,5.055l2.395-2.236c1.129,1.211,2.46,2.27,3.984,3.116c0.004,0.002,0.008,0.004,0.011,0.006
						l-1.585,2.861c1.797,0.995,3.723,1.698,5.724,2.088l0.626-3.217c1.686,0.326,3.396,0.378,5.066,0.17l0.402,3.256
						c2.03-0.251,4-0.815,5.855-1.678l-1.383-2.975c1.527-0.709,2.949-1.657,4.207-2.827L675.418,212.807z M658.984,206.515
						c-5.236-2.093-7.074-8.519-3.738-13.065c2.274-3.099,6.461-4.297,10.03-2.87c5.237,2.093,7.076,8.519,3.739,13.066
						C666.74,206.744,662.553,207.942,658.984,206.515z"/>
				</g>
			</g>
			<g>
				<g>
					<path style="fill:#FFFFFF;" d="M71.512,250.9c1.047-0.976,1.933-2.111,2.633-3.372l0.018-0.033l-2.008-1.115
						c0.591-1.074,0.988-2.203,1.207-3.347l2.26,0.434c0.271-1.409,0.317-2.848,0.137-4.278l-2.286,0.288
						c-0.15-1.183-0.484-2.337-0.989-3.418l2.087-0.977c-0.611-1.305-1.418-2.498-2.399-3.545l-1.679,1.573
						c-0.79-0.845-1.72-1.583-2.785-2.174c-0.008-0.004-0.016-0.008-0.024-0.013l1.11-2.011c-1.263-0.697-2.616-1.188-4.021-1.459
						l-0.436,2.26c-1.184-0.227-2.384-0.262-3.556-0.114l-0.286-2.286c-1.425,0.178-2.807,0.577-4.108,1.184l0.975,2.088
						c-1.071,0.499-2.069,1.166-2.95,1.989l-1.572-1.68c-1.04,0.972-1.92,2.102-2.617,3.357l-0.009,0.017l2.013,1.104
						c-0.596,1.076-0.997,2.208-1.218,3.355l-2.258-0.438c-0.273,1.409-0.322,2.848-0.144,4.278l2.285-0.284
						c0.148,1.184,0.48,2.339,0.983,3.421l-2.088,0.973c0.608,1.306,1.414,2.5,2.393,3.549l1.681-1.57
						c0.792,0.85,1.727,1.594,2.797,2.187c0.003,0.002,0.005,0.003,0.008,0.004l-1.113,2.008c1.261,0.699,2.613,1.192,4.018,1.465
						l0.439-2.258c1.184,0.229,2.384,0.265,3.556,0.12l0.282,2.286c1.425-0.176,2.808-0.572,4.11-1.178l-0.971-2.089
						c1.072-0.498,2.07-1.163,2.953-1.985L71.512,250.9z M59.976,246.483c-3.676-1.469-4.966-5.98-2.624-9.171
						c1.596-2.175,4.535-3.016,7.041-2.015c3.676,1.469,4.967,5.98,2.624,9.172C65.42,246.644,62.481,247.485,59.976,246.483z"/>
				</g>
			</g>
		</g>
	</g>
	<g>
		<g>
			<path style="fill:#7BA9FA;" d="M152.924,252.261l-42.038,0.308c-3.02,0.022-5.485-2.408-5.507-5.427l-0.264-36.07
				c-0.022-3.02,2.408-5.485,5.427-5.508l42.038-0.308c3.02-0.022,5.485,2.408,5.507,5.427l0.264,36.07
				C158.373,249.773,155.943,252.238,152.924,252.261z"/>
			<g>
				<path style="fill:#FFFFFF;" d="M150.218,226.743c1.337,11.751-8.328,21.703-20.113,20.71
					c-8.721-0.735-15.868-7.676-16.857-16.371c-1.338-11.751,8.328-21.704,20.113-20.71
					C142.081,211.107,149.228,218.047,150.218,226.743z"/>
			</g>
			<g>
				<path style="fill:#4361B7;" d="M143.017,224.046l-10.03,7.042c-0.753,0.529-1.756,0.529-2.509,0l-10.03-7.042v-0.26
					c0-1.001,0.909-1.812,2.029-1.812h18.51c1.121,0,2.029,0.811,2.029,1.812V224.046z"/>
				<path style="fill:#4361B7;" d="M130.478,233.224l-10.03-7.042v10.339c0,1.186,1.076,2.147,2.404,2.147h17.762
					c1.328,0,2.404-0.961,2.404-2.147v-10.339l-10.03,7.042C132.234,233.753,131.231,233.753,130.478,233.224z"/>
			</g>
		</g>
		<g>
			<path style="fill:#7BA9FA;" d="M240.108,77.906l-26.344,0.193c-3.02,0.022-5.485-2.408-5.507-5.427l-0.162-22.143
				c-0.022-3.02,2.408-5.485,5.427-5.507l26.344-0.193c3.02-0.022,5.485,2.408,5.507,5.427l0.162,22.143
				C245.558,75.418,243.128,77.884,240.108,77.906z"/>
			<g>
				<path style="fill:#FFFFFF;" d="M239.423,61.279c0.102,6.963-5.46,12.69-12.423,12.793c-6.963,0.102-12.69-5.46-12.792-12.423
					c-0.102-6.963,5.46-12.691,12.423-12.792C233.594,48.754,239.321,54.316,239.423,61.279z"/>
			</g>
			<path style="fill:#4361B7;" d="M234.701,59.838l-7.156-8.136c-0.387-0.44-1.073-0.44-1.46,0l-7.156,8.136
				c-0.552,0.628-0.106,1.614,0.73,1.614h0.848v7.794h4.294v-6.015h4.027v6.015h4.298v-7.794h0.845
				C234.808,61.452,235.254,60.466,234.701,59.838z"/>
		</g>
		<g>
			<path style="fill:#7BA9FA;" d="M610.604,203.89l-32.925,0.241c-3.02,0.022-5.485-2.408-5.508-5.427l-0.205-27.983
				c-0.022-3.02,2.408-5.485,5.427-5.507l32.925-0.241c3.019-0.022,5.485,2.408,5.507,5.427l0.205,27.983
				C616.054,201.402,613.624,203.868,610.604,203.89z"/>
			<g>
				<path style="fill:#FFFFFF;" d="M608.833,184.334c0.12,8.192-6.424,14.931-14.616,15.051c-8.192,0.12-14.931-6.424-15.051-14.616
					c-0.12-8.193,6.424-14.931,14.616-15.051C601.974,169.598,608.713,176.142,608.833,184.334z"/>
			</g>
			<g>
				<path style="fill:#4361B7;" d="M602.777,183.256c-0.3,0.516-0.749,0.774-1.348,0.766c-0.083,0-0.158,0-0.241,0.008
					c0.05,0.017,0.1,0.033,0.15,0.042c0.691,0.166,1.149,0.782,1.099,1.473c-0.05,0.682-0.633,1.273-1.315,1.332
					c-0.15,0.017-0.308,0-0.458,0v0.025c0.067,0.025,0.141,0.033,0.216,0.058c0.499,0.158,1.04,0.683,1.015,1.398
					c-0.008,0.258-0.108,0.483-0.275,0.683c-0.316,0.374-0.749,0.574-1.224,0.674c-0.108,0.017-0.216,0.033-0.325,0.067
					c0.025,0,0.05,0.008,0.075,0.017c0.533,0.108,0.957,0.574,1.057,1.14c0.091,0.533-0.075,0.965-0.533,1.257
					c-0.183,0.125-0.375,0.216-0.574,0.3c-0.325,0.125-0.666,0.175-1.016,0.175h-9.389v-10.895c0.599-0.266,1.14-0.624,1.656-1.024
					c0.866-0.658,1.606-1.432,2.181-2.364c0.316-0.508,0.558-1.049,0.641-1.648c0.033-0.225,0.042-0.449,0.05-0.674
					c0.025-0.316,0.083-0.633,0.208-0.924c0.333-0.749,0.974-1.049,1.756-0.832c0.416,0.117,0.724,0.366,0.932,0.741
					c0.241,0.416,0.366,0.866,0.358,1.348c-0.042,1.157-0.258,2.272-0.641,3.354c-0.15,0.433-0.366,0.841-0.608,1.232
					c-0.033,0.05-0.058,0.092-0.1,0.167h5.352c0.341,0,0.666,0.083,0.949,0.291C603.01,181.891,603.152,182.607,602.777,183.256z"/>
				<path style="fill:#4361B7;" d="M588.551,192.67h-2.484c-0.582,0-1.054-0.472-1.054-1.054v-8.795
					c0-0.582,0.472-1.054,1.054-1.054h2.484V192.67z"/>
			</g>
		</g>
	</g>
	<g>
		<circle style="fill:#EBAC3B;" cx="293.94" cy="194.518" r="5.56"/>
		<g>
			<g>
				<line style="fill:none;stroke:#EBAC3B;stroke-miterlimit:10;" x1="293.94" y1="194.307" x2="291.44" y2="194.307"/>
				<path style="fill:none;stroke:#EBAC3B;stroke-miterlimit:10;stroke-dasharray:5.062,5.062;" d="M286.378,194.307h-95.594
					c-6.477,0-11.727-5.25-11.727-11.727v-4.947"/>
				<line style="fill:none;stroke:#EBAC3B;stroke-miterlimit:10;" x1="179.058" y1="175.102" x2="179.058" y2="172.602"/>
			</g>
		</g>
		<g>
			<path style="fill:#5D95E8;" d="M247.711,120.754v49.816c0,4.392-3.56,7.952-7.952,7.952l-120.236,0
				c-4.397,0-7.962-3.565-7.962-7.962v-49.806c0-4.392,3.56-7.952,7.952-7.952h120.246
				C244.151,112.802,247.711,116.362,247.711,120.754z"/>
			<path style="fill:#4361B7;" d="M247.711,165.274v5.744c0,4.145-3.36,7.505-7.505,7.505l-121.132,0
				c-4.15,0-7.514-3.364-7.514-7.515v-5.734H247.711z"/>
			<path style="fill:#FFFFFF;" d="M125.41,158.707L125.41,158.707c-0.725,0-1.313-0.588-1.313-1.313v-36.446
				c0-0.725,0.588-1.313,1.313-1.313l0,0c0.725,0,1.313,0.588,1.313,1.313v36.446C126.723,158.119,126.135,158.707,125.41,158.707z"
				/>
			<path style="fill:#EBAC3B;" d="M130.827,141.141c0,2.901-2.352,5.253-5.254,5.253c-2.901,0-5.253-2.352-5.253-5.253
				c0-2.901,2.352-5.254,5.253-5.254C128.475,135.887,130.827,138.24,130.827,141.141z"/>
			<path style="fill:#CBDDFE;" d="M234.714,158.707h-90.857c-3.116,0-5.642-2.526-5.642-5.642v-27.788
				c0-3.116,2.526-5.642,5.642-5.642h90.857c3.116,0,5.642,2.526,5.642,5.642v27.788
				C240.356,156.181,237.83,158.707,234.714,158.707z"/>
			<g>
				<path style="fill:#4361B7;" d="M145.815,155.096L145.815,155.096c-0.973,0-1.762-0.789-1.762-1.762V137.65
					c0-0.973,0.789-1.762,1.762-1.762h0c0.973,0,1.762,0.789,1.762,1.762v15.684C147.577,154.307,146.788,155.096,145.815,155.096z"
					/>
				<path style="fill:#4361B7;" d="M153.745,155.096L153.745,155.096c-0.973,0-1.762-0.789-1.762-1.762v-27.34
					c0-0.973,0.789-1.762,1.762-1.762h0c0.973,0,1.762,0.789,1.762,1.762v27.34C155.507,154.307,154.718,155.096,153.745,155.096z"
					/>
				<path style="fill:#4361B7;" d="M161.674,155.096L161.674,155.096c-0.973,0-1.762-0.789-1.762-1.762v-9.078
					c0-0.973,0.789-1.762,1.762-1.762l0,0c0.973,0,1.762,0.789,1.762,1.762v9.078C163.436,154.307,162.647,155.096,161.674,155.096z
					"/>
				<path style="fill:#4361B7;" d="M169.604,155.096L169.604,155.096c-0.973,0-1.762-0.789-1.762-1.762v-17.169
					c0-0.973,0.789-1.762,1.762-1.762h0c0.973,0,1.762,0.789,1.762,1.762v17.169C171.365,154.307,170.577,155.096,169.604,155.096z"
					/>
				<path style="fill:#4361B7;" d="M177.533,155.096L177.533,155.096c-0.973,0-1.762-0.789-1.762-1.762v-27.34
					c0-0.973,0.789-1.762,1.762-1.762h0c0.973,0,1.762,0.789,1.762,1.762v27.34C179.295,154.307,178.506,155.096,177.533,155.096z"
					/>
				<path style="fill:#4361B7;" d="M185.462,155.096L185.462,155.096c-0.973,0-1.762-0.789-1.762-1.762v-13.419
					c0-0.973,0.789-1.762,1.762-1.762h0c0.973,0,1.762,0.789,1.762,1.762v13.419C187.224,154.307,186.435,155.096,185.462,155.096z"
					/>
				<path style="fill:#4361B7;" d="M193.392,155.096L193.392,155.096c-0.973,0-1.762-0.789-1.762-1.762v-23.779
					c0-0.973,0.789-1.762,1.762-1.762h0c0.973,0,1.762,0.789,1.762,1.762v23.779C195.154,154.307,194.365,155.096,193.392,155.096z"
					/>
				<path style="fill:#4361B7;" d="M201.321,155.096L201.321,155.096c-0.973,0-1.762-0.789-1.762-1.762v-27.34
					c0-0.973,0.789-1.762,1.762-1.762l0,0c0.973,0,1.762,0.789,1.762,1.762v27.34C203.083,154.307,202.294,155.096,201.321,155.096z
					"/>
				<path style="fill:#4361B7;" d="M209.25,155.096L209.25,155.096c-0.973,0-1.762-0.789-1.762-1.762v-9.078
					c0-0.973,0.789-1.762,1.762-1.762h0c0.973,0,1.762,0.789,1.762,1.762v9.078C211.012,154.307,210.223,155.096,209.25,155.096z"/>
				<path style="fill:#4361B7;" d="M217.18,155.096L217.18,155.096c-0.973,0-1.762-0.789-1.762-1.762v-19.979
					c0-0.973,0.789-1.762,1.762-1.762h0c0.973,0,1.762,0.789,1.762,1.762v19.979C218.942,154.307,218.153,155.096,217.18,155.096z"
					/>
				<path style="fill:#4361B7;" d="M225.109,155.096L225.109,155.096c-0.973,0-1.762-0.789-1.762-1.762v-27.34
					c0-0.973,0.789-1.762,1.762-1.762h0c0.973,0,1.762,0.789,1.762,1.762v27.34C226.871,154.307,226.082,155.096,225.109,155.096z"
					/>
				<path style="fill:#4361B7;" d="M233.038,155.096L233.038,155.096c-0.973,0-1.762-0.789-1.762-1.762v-19.979
					c0-0.973,0.789-1.762,1.762-1.762l0,0c0.973,0,1.762,0.789,1.762,1.762v19.979C234.8,154.307,234.012,155.096,233.038,155.096z"
					/>
			</g>
		</g>
	</g>
</g>
</svg>
