<?xml version="1.0" ?><svg style="enable-background:new 0 0 32 32;" version="1.1" viewBox="0 0 32 32" xml:space="preserve" xmlns="http://www.w3.org/2000/svg" xmlns:xlink="http://www.w3.org/1999/xlink"><style type="text/css">
	.st0{fill:#B9F3F8;}
	.st1{fill:#55C1FA;}
	.st2{fill:#FBC34E;}
	.st3{opacity:0.05;}
	.st4{fill:#FFFFFF;}
	.st5{fill:#7A442A;}
	.st6{fill:#C77C58;}
	.st7{fill:#E4EDF2;}
	.st8{fill:#F25949;}
	.st9{fill:#FA9B55;}
	.st10{fill:#E5A533;}
	.st11{fill:#6FA7AB;}
	.st12{fill:#20A56C;}
	.st13{fill:#F2C09E;}
	.st14{fill:#F4E8D0;}
	.st15{fill:#F2AB38;}
	.st16{fill:#393B3D;}
	.st17{fill:#ACE4E5;}
	.st18{fill:#659899;}
	.st19{fill:#E3FAFC;}
	.st20{fill:#DDF1F2;}
	.st21{fill:#16F293;}
	.st22{fill:#5C3320;}
	.st23{fill:#AD410D;}
	.st24{fill:#8B9CA5;}
	.st25{fill:#B26C50;}
	.st26{fill:none;}
	.st27{fill:#DAE1E5;}
	.st28{fill:#425158;}
	.st29{fill:#829299;}
	.st30{fill:#A5795C;}
	.st31{fill:#7A7468;}
	.st32{fill:#7B3ABF;}
	.st33{fill:#B564FF;}
	.st34{fill:#2B617D;}
</style><g id="Magnifier"/><g id="Gear"/><g id="Home"/><g id="Shield"/><g id="Star"/><g id="Flash"/><g id="Heart"/><g id="Hearts"/><g id="Shopping_Bag"/><g id="Token"/><g id="Warning"/><g id="Warning_B"/><g id="Chat"/><g id="Diamond"/><g id="Hanger"/><g id="Warning_C"/><g id="Potion"/><g id="Hourglass"/><g id="Trophy"/><g id="Bomb"/><g id="Gem"/><g id="Spell_Book"/><g id="User"/><g id="Users"><g><path class="st1" d="M9.93,13.99c0.93,0,1.81-0.27,2.55-0.74c0.7-0.44,1.27-1.05,1.66-1.78c0.08-0.15,0.15-0.3,0.21-0.46    c-0.57-1.05-0.89-2.26-0.89-3.54c0-0.46,0.04-0.91,0.13-1.34c-0.89-1.04-2.2-1.7-3.66-1.7c-2.64,0-4.79,2.14-4.79,4.78    C5.14,11.85,7.29,13.99,9.93,13.99z"/><path class="st1" d="M11.08,15.88c-0.37,0.08-0.76,0.11-1.15,0.11c-1.92,0-3.66-0.8-4.9-2.1c-1.48,1.33-2.41,3.26-2.41,5.41v6.69    c0,1.34,1.09,2.44,2.44,2.44h5.55c-0.09-0.36-0.14-0.74-0.14-1.13v-7.9C10.47,18.17,10.69,16.98,11.08,15.88z"/><path class="st1" d="M20.927,12.943c3.017,0,5.471-2.455,5.471-5.471C26.398,4.455,23.943,2,20.927,2    c-3.017,0-5.472,2.455-5.472,5.472C15.455,10.488,17.91,12.943,20.927,12.943z"/><path class="st1" d="M26.18,12.78c-1.35,1.33-3.2,2.16-5.25,2.16s-3.91-0.83-5.26-2.17c-1.95,1.56-3.2,3.95-3.2,6.63v7.9    c0,1.49,1.22,2.7,2.71,2.7h11.5c1.49,0,2.7-1.21,2.7-2.7v-7.9C29.38,16.72,28.13,14.33,26.18,12.78z"/></g></g><g id="Treasure_Chest"/><g id="Treasure_Chest_Open"/><g id="Sack"/><g id="Fishing_Pin"/><g id="Sword"/><g id="Sword_And_Shield"/><g id="Backpack"/><g id="Key"/><g id="Meat"/><g id="Skull"/><g id="Store"/><g id="Helmet"/><g id="Anvil"/><g id="Axe"/><g id="Spear"/><g id="Food"/><g id="Bow"/><g id="Scroll"/><g id="Armor"/><g id="Hat"/><g id="Wand"/><g id="Map"/><g id="Mushroom"/><g id="Feather"/><g id="Wings"/><g id="Fish"/></svg>