<?xml version="1.0" ?><svg enable-background="new 0 0 32 32" version="1.1" viewBox="0 0 32 32" xml:space="preserve" xmlns="http://www.w3.org/2000/svg" xmlns:xlink="http://www.w3.org/1999/xlink"><g id="Style_2_copy_3"><path d="M16,0C7.163,0,0,7.163,0,16c0,8.836,7.163,16,16,16s16-7.164,16-16C32,7.163,24.837,0,16,0z" fill="#333333"/><g><path clip-rule="evenodd" d="M18.291,5.618c-1.307,0.607-5.07,3.514-7.096,5.039    c2.467-0.822,8.392-2.136,11.429-2.207C21.675,7.781,19.011,5.97,18.291,5.618z M6.46,24.382    c0.836-0.368,8.761-3.006,16.048-3.442c0.157-0.614,0.955-2.675,1.102-3.234c-7.56,0.539-13.708,2.798-16.178,3.94L6.46,24.382z     M23.19,8.846c0,0-7.355,7.389-8.508,8.45c2.238-0.809,6.82-1.771,9.73-1.945c0.338-1.03,0.696-1.777,0.696-1.777L29,13.185    C29,13.185,26.042,10.794,23.19,8.846z M7.722,20.851c2.316-2.385,10.651-10.078,10.651-10.078    c-4.336,1.013-8.863,2.388-10.48,3.125L5.46,16.399c2.033-0.433,2.688-0.519,4.176-0.737L7.722,20.851z" fill="#FFFFFF" fill-rule="evenodd"/></g></g></svg>